<svg id="Cart" xmlns="http://www.w3.org/2000/svg" width="37" height="37" viewBox="0 0 37 37">
  <metadata><?xpacket begin="﻿" id="W5M0MpCehiHzreSzNTczkc9d"?>
<x:xmpmeta xmlns:x="adobe:ns:meta/" x:xmptk="Adobe XMP Core 5.6-c138 79.159824, 2016/09/14-01:09:01        ">
   <rdf:RDF xmlns:rdf="http://www.w3.org/1999/02/22-rdf-syntax-ns#">
      <rdf:Description rdf:about=""/>
   </rdf:RDF>
</x:xmpmeta>
                                                                                                    
                                                                                                    
                                                                                                    
                                                                                                    
                                                                                                    
                                                                                                    
                                                                                                    
                                                                                                    
                                                                                                    
                                                                                                    
                                                                                                    
                                                                                                    
                                                                                                    
                                                                                                    
                                                                                                    
                                                                                                    
                                                                                                    
                                                                                                    
                                                                                                    
                                                                                                    
                           
<?xpacket end="w"?></metadata>
<defs>
    <style>
      .cls-1 {
        fill: none;
        stroke: #242526;
        stroke-width: 1px;
        opacity: 0.8;
      }

      .cls-2 {
        fill-rule: evenodd;
      }
    </style>
  </defs>
  <circle id="cart_" data-name="cart " class="cls-1" cx="18.5" cy="18.5" r="18"/>
  <path id="Cart_Icon" data-name="Cart Icon" class="cls-2" d="M1090.02,66.648l-1.27,3.309a1.3,1.3,0,0,1-1.18.782h-5.07a1.172,1.172,0,0,1-1.14-.885l-1.23-5.632h-2.05V63h2.14a1.173,1.173,0,0,1,1.14.885l0.35,1.56h7.43a0.965,0.965,0,0,1,.79.373A0.847,0.847,0,0,1,1090.02,66.648Zm-8.05.018,0.63,2.851h4.97l1.08-2.851h-6.68Zm0.96,4.888a1.224,1.224,0,1,1-1.28,1.222A1.26,1.26,0,0,1,1082.93,71.555Zm4.5,0a1.224,1.224,0,1,1-1.29,1.222A1.251,1.251,0,0,1,1087.43,71.555Z" transform="translate(-1065.5 -49.5)"/>
</svg>
