<svg xmlns="http://www.w3.org/2000/svg" width="11.34" height="9.312" viewBox="0 0 11.34 9.312">
  <metadata><?xpacket begin="﻿" id="W5M0MpCehiHzreSzNTczkc9d"?>
<x:xmpmeta xmlns:x="adobe:ns:meta/" x:xmptk="Adobe XMP Core 5.6-c138 79.159824, 2016/09/14-01:09:01        ">
   <rdf:RDF xmlns:rdf="http://www.w3.org/1999/02/22-rdf-syntax-ns#">
      <rdf:Description rdf:about=""/>
   </rdf:RDF>
</x:xmpmeta>
                                                                                                    
                                                                                                    
                                                                                                    
                                                                                                    
                                                                                                    
                                                                                                    
                                                                                                    
                                                                                                    
                                                                                                    
                                                                                                    
                                                                                                    
                                                                                                    
                                                                                                    
                                                                                                    
                                                                                                    
                                                                                                    
                                                                                                    
                                                                                                    
                                                                                                    
                                                                                                    
                           
<?xpacket end="w"?></metadata>
<defs>
    <style>
      .cls-1 {
        fill: #fff;
        fill-rule: evenodd;
      }
    </style>
  </defs>
  <path id="Twitter_Icon" data-name="Twitter Icon" class="cls-1" d="M1043.33,59.438a4.665,4.665,0,0,1-1.34.371,2.4,2.4,0,0,0,1.03-1.3,4.632,4.632,0,0,1-1.48.571,2.3,2.3,0,0,0-1.7-.744,2.339,2.339,0,0,0-2.32,2.356,2.379,2.379,0,0,0,.06.537,6.56,6.56,0,0,1-4.79-2.462,2.363,2.363,0,0,0,.72,3.146,2.325,2.325,0,0,1-1.06-.295v0.03a2.348,2.348,0,0,0,1.87,2.31,2.321,2.321,0,0,1-.61.083,2.264,2.264,0,0,1-.44-0.043,2.321,2.321,0,0,0,2.17,1.636,4.649,4.649,0,0,1-3.44.976,6.514,6.514,0,0,0,3.56,1.058,6.619,6.619,0,0,0,6.62-6.7c0-.1-0.01-0.2-0.01-0.3a4.806,4.806,0,0,0,1.16-1.22h0Z" transform="translate(-1032 -58.344)"/>
</svg>
